# xmcd
#
# Track frame offsets: 
#        150
#        15977
#        38750
#        58387
#
# Disc length: 1215 seconds
#
# Revision: 0
# Processed by: cddbd v1.5.2PL0 Copyright (c) Steve Scherf et al.
# Submitted via: ExactAudioCopy v1.0b3
#
DISCID=2a04bd04
DTITLE=Ultra-Sonic - Check Your Head
DYEAR=1900
DGENRE=
TTITLE0=Check Your Head (Live In Zürich)
TTITLE1=Love Me Right (Live In Zürich)
TTITLE2=Check Your Head (Extended European Mix)
TTITLE3=Obsession (Radio Edit)
EXTD=
EXTT0=
EXTT1=
EXTT2=
EXTT3=
PLAYORDER=
